# This file uses centimeters as units for non-parametric coordinates.

mtllib Sails_03.mtl
g default
v -3.357116 9.244184 8.573170
v 3.357116 9.244184 8.573170
v -3.357117 13.721326 8.573170
v 3.357117 13.721326 8.573170
v -3.357117 13.721326 8.521600
v 3.357117 13.721326 8.521600
v -3.357116 9.244184 8.521600
v 3.357116 9.244184 8.521600
v -3.357117 12.825897 8.779720
v 3.357117 12.825897 8.779720
v 3.357117 12.825897 8.728150
v -3.357117 12.825897 8.728150
v -3.357117 9.960527 8.779720
v 3.357117 9.960527 8.779720
v 3.357117 9.960527 8.728150
v -3.357117 9.960527 8.728150
v 3.357117 12.252824 8.877760
v 3.357117 12.252824 8.929330
v -3.357117 12.252824 8.929330
v -3.357117 12.252824 8.877760
v -3.357117 10.418986 8.929330
v 3.357117 10.418986 8.929330
v 3.357117 10.418986 8.877760
v -3.357117 10.418986 8.877760
v 3.357117 11.335905 8.965744
v 3.357117 11.335905 9.017314
v -3.357117 11.335905 9.017314
v -3.357117 11.335905 8.965744
v -3.357117 11.232771 -6.375031
v 3.357117 11.232771 -6.375031
v -3.357117 15.709912 -6.375031
v 3.357117 15.709912 -6.375031
v -3.357117 15.709912 -6.426600
v 3.357117 15.709912 -6.426600
v -3.357117 11.232771 -6.426600
v 3.357117 11.232771 -6.426600
v -3.357117 14.814484 -6.168479
v 3.357117 14.814484 -6.168479
v 3.357117 14.814484 -6.220049
v -3.357117 14.814484 -6.220049
v -3.357117 11.949114 -6.168479
v 3.357117 11.949114 -6.168479
v 3.357117 11.949114 -6.220049
v -3.357117 11.949114 -6.220049
v 3.357117 14.241410 -6.070439
v 3.357117 14.241410 -6.018869
v -3.357117 14.241410 -6.018869
v -3.357117 14.241410 -6.070439
v -3.357117 12.407573 -6.018869
v 3.357117 12.407573 -6.018869
v 3.357117 12.407573 -6.070439
v -3.357117 12.407573 -6.070439
v 3.357117 13.324492 -5.982456
v 3.357117 13.324492 -5.930886
v -3.357117 13.324492 -5.930886
v -3.357117 13.324492 -5.982456
v -2.513711 17.934612 2.355951
v 2.513711 17.934612 2.355951
v -2.513711 21.109997 2.355951
v 2.513711 21.109997 2.355951
v -2.513711 21.109997 2.287068
v 2.513711 21.109997 2.287068
v -2.513711 17.934612 2.287068
v 2.513711 17.934612 2.287068
v -2.513711 20.474920 2.631847
v 2.513711 20.474920 2.631847
v 2.513711 20.474920 2.562964
v -2.513711 20.474920 2.562964
v -2.513711 18.442675 2.631847
v 2.513711 18.442675 2.631847
v 2.513711 18.442675 2.562964
v -2.513711 18.442675 2.562964
v 2.513711 20.068472 2.762802
v 2.513711 20.068472 2.831686
v -2.513711 20.068472 2.831686
v -2.513711 20.068472 2.762802
v -2.513711 18.767834 2.831686
v 2.513711 18.767834 2.831686
v 2.513711 18.767834 2.762802
v -2.513711 18.767834 2.762802
v 2.513711 19.418152 2.880324
v 2.513711 19.418152 2.949208
v -2.513711 19.418152 2.949208
v -2.513711 19.418152 2.880324
v -4.484199 10.921896 2.355951
v 4.484199 10.921896 2.355951
v -4.484199 16.902143 2.355951
v 4.484199 16.902143 2.355951
v -4.484199 16.902143 2.287068
v 4.484199 16.902143 2.287068
v -4.484199 10.921896 2.287068
v 4.484199 10.921896 2.287068
v -4.484199 15.706094 2.631847
v 4.484199 15.706094 2.631847
v 4.484199 15.706094 2.562964
v -4.484199 15.706094 2.562964
v -4.484199 11.878736 2.631847
v 4.484199 11.878736 2.631847
v 4.484199 11.878736 2.562964
v -4.484199 11.878736 2.562964
v 4.484199 14.940622 2.762802
v 4.484199 14.940622 2.831686
v -4.484199 14.940622 2.831686
v -4.484199 14.940622 2.762802
v -4.484199 12.491113 2.831686
v 4.484199 12.491113 2.831686
v 4.484199 12.491113 2.762802
v -4.484199 12.491113 2.762802
v 4.484199 13.715868 2.880324
v 4.484199 13.715868 2.949208
v -4.484199 13.715868 2.949208
v -4.484199 13.715868 2.880324
vt 0.375000 0.200000
vt 0.625000 0.200000
vt 0.625000 0.250000
vt 0.375000 0.250000
vt 0.625000 0.500000
vt 0.375000 0.500000
vt 0.625000 0.550000
vt 0.375000 0.550000
vt 0.375000 0.750000
vt 0.625000 0.750000
vt 0.625000 1.000000
vt 0.375000 1.000000
vt 0.875000 0.200000
vt 0.875000 0.250000
vt 0.125000 0.200000
vt 0.125000 0.250000
vt 0.375000 0.065600
vt 0.625000 0.065600
vt 0.625000 0.116800
vt 0.375000 0.116800
vt 0.875000 0.065600
vt 0.875000 0.116800
vt 0.375000 0.633200
vt 0.625000 0.633200
vt 0.625000 0.684400
vt 0.375000 0.684400
vt 0.125000 0.065600
vt 0.125000 0.116800
vt 0.375000 0.000000
vt 0.625000 0.000000
vt 0.625000 0.040000
vt 0.375000 0.040000
vt 0.875000 0.000000
vt 0.875000 0.040000
vt 0.375000 0.710000
vt 0.625000 0.710000
vt 0.125000 0.000000
vt 0.125000 0.040000
vt 0.625000 0.168000
vt 0.875000 0.168000
vt 0.375000 0.168000
vt 0.125000 0.168000
vt 0.625000 0.582000
vt 0.375000 0.582000
vt 0.375000 0.200000
vt 0.625000 0.200000
vt 0.625000 0.250000
vt 0.375000 0.250000
vt 0.625000 0.500000
vt 0.375000 0.500000
vt 0.625000 0.550000
vt 0.375000 0.550000
vt 0.375000 0.750000
vt 0.625000 0.750000
vt 0.625000 1.000000
vt 0.375000 1.000000
vt 0.875000 0.200000
vt 0.875000 0.250000
vt 0.125000 0.200000
vt 0.125000 0.250000
vt 0.375000 0.065600
vt 0.625000 0.065600
vt 0.625000 0.116800
vt 0.375000 0.116800
vt 0.875000 0.065600
vt 0.875000 0.116800
vt 0.375000 0.633200
vt 0.625000 0.633200
vt 0.625000 0.684400
vt 0.375000 0.684400
vt 0.125000 0.065600
vt 0.125000 0.116800
vt 0.375000 0.000000
vt 0.625000 0.000000
vt 0.625000 0.040000
vt 0.375000 0.040000
vt 0.875000 0.000000
vt 0.875000 0.040000
vt 0.375000 0.710000
vt 0.625000 0.710000
vt 0.125000 0.000000
vt 0.125000 0.040000
vt 0.625000 0.168000
vt 0.875000 0.168000
vt 0.375000 0.168000
vt 0.125000 0.168000
vt 0.625000 0.582000
vt 0.375000 0.582000
vt 0.375000 0.200000
vt 0.625000 0.200000
vt 0.625000 0.250000
vt 0.375000 0.250000
vt 0.625000 0.500000
vt 0.375000 0.500000
vt 0.625000 0.550000
vt 0.375000 0.550000
vt 0.375000 0.750000
vt 0.625000 0.750000
vt 0.625000 1.000000
vt 0.375000 1.000000
vt 0.875000 0.200000
vt 0.875000 0.250000
vt 0.125000 0.200000
vt 0.125000 0.250000
vt 0.375000 0.065600
vt 0.625000 0.065600
vt 0.625000 0.116800
vt 0.375000 0.116800
vt 0.875000 0.065600
vt 0.875000 0.116800
vt 0.375000 0.633200
vt 0.625000 0.633200
vt 0.625000 0.684400
vt 0.375000 0.684400
vt 0.125000 0.065600
vt 0.125000 0.116800
vt 0.375000 0.000000
vt 0.625000 0.000000
vt 0.625000 0.040000
vt 0.375000 0.040000
vt 0.875000 0.000000
vt 0.875000 0.040000
vt 0.375000 0.710000
vt 0.625000 0.710000
vt 0.125000 0.000000
vt 0.125000 0.040000
vt 0.625000 0.168000
vt 0.875000 0.168000
vt 0.375000 0.168000
vt 0.125000 0.168000
vt 0.625000 0.582000
vt 0.375000 0.582000
vt 0.375000 0.200000
vt 0.625000 0.200000
vt 0.625000 0.250000
vt 0.375000 0.250000
vt 0.625000 0.500000
vt 0.375000 0.500000
vt 0.625000 0.550000
vt 0.375000 0.550000
vt 0.375000 0.750000
vt 0.625000 0.750000
vt 0.625000 1.000000
vt 0.375000 1.000000
vt 0.875000 0.200000
vt 0.875000 0.250000
vt 0.125000 0.200000
vt 0.125000 0.250000
vt 0.375000 0.065600
vt 0.625000 0.065600
vt 0.625000 0.116800
vt 0.375000 0.116800
vt 0.875000 0.065600
vt 0.875000 0.116800
vt 0.375000 0.633200
vt 0.625000 0.633200
vt 0.625000 0.684400
vt 0.375000 0.684400
vt 0.125000 0.065600
vt 0.125000 0.116800
vt 0.375000 0.000000
vt 0.625000 0.000000
vt 0.625000 0.040000
vt 0.375000 0.040000
vt 0.875000 0.000000
vt 0.875000 0.040000
vt 0.375000 0.710000
vt 0.625000 0.710000
vt 0.125000 0.000000
vt 0.125000 0.040000
vt 0.625000 0.168000
vt 0.875000 0.168000
vt 0.375000 0.168000
vt 0.125000 0.168000
vt 0.625000 0.582000
vt 0.375000 0.582000
vn 0.000000 0.224770 0.974412
vn 0.000000 0.224770 0.974412
vn 0.000000 0.224770 0.974412
vn 0.000000 0.224770 0.974412
vn 0.000000 1.000000 0.000000
vn 0.000000 1.000000 0.000000
vn 0.000000 1.000000 0.000000
vn 0.000000 1.000000 0.000000
vn 0.000000 -0.224770 -0.974412
vn 0.000000 -0.224770 -0.974412
vn 0.000000 -0.235700 -0.971826
vn 0.000000 -0.235700 -0.971826
vn 0.000000 -1.000000 0.000000
vn 0.000000 -1.000000 0.000000
vn 0.000000 -1.000000 0.000000
vn 0.000000 -1.000000 0.000000
vn 1.000000 0.000000 0.000000
vn 1.000000 0.000000 0.000000
vn 1.000000 0.000000 0.000000
vn 1.000000 0.000000 0.000000
vn -1.000000 0.000000 0.000000
vn -1.000000 0.000000 0.000000
vn -1.000000 0.000000 0.000000
vn -1.000000 0.000000 0.000000
vn 0.000000 -0.170227 0.985405
vn 0.000000 -0.170227 0.985405
vn 0.000000 0.000000 1.000000
vn 0.000000 0.000000 1.000000
vn 1.000000 0.000000 0.000000
vn 1.000000 0.000000 0.000000
vn 1.000000 -0.000001 0.000000
vn 1.000000 -0.000001 0.000000
vn 0.000000 0.000000 -1.000000
vn 0.000000 0.000000 -1.000000
vn 0.000000 0.170227 -0.985405
vn 0.000000 0.170227 -0.985405
vn -1.000000 0.000000 0.000000
vn -1.000000 0.000000 0.000000
vn -1.000000 0.000000 0.000000
vn -1.000000 0.000000 0.000000
vn 0.000000 -0.277053 0.960855
vn 0.000000 -0.277053 0.960855
vn 0.000000 -0.290127 0.956988
vn 0.000000 -0.290127 0.956988
vn 1.000000 0.000000 0.000000
vn 1.000000 0.000000 0.000000
vn 1.000000 0.000000 0.000000
vn 1.000000 0.000000 0.000000
vn 0.000000 0.290126 -0.956988
vn 0.000000 0.290126 -0.956988
vn 0.000000 0.277053 -0.960855
vn 0.000000 0.277053 -0.960855
vn -1.000000 0.000000 0.000000
vn -1.000000 0.000000 0.000000
vn -1.000000 0.000000 0.000000
vn -1.000000 0.000000 0.000000
vn 1.000000 0.000000 0.000000
vn 1.000000 0.000000 0.000000
vn 1.000000 0.000000 0.000000
vn 1.000000 0.000000 0.000000
vn 0.000000 0.157470 0.987524
vn 0.000000 0.157470 0.987524
vn 0.000000 0.235700 0.971826
vn 0.000000 0.235700 0.971826
vn -1.000000 0.000000 0.000000
vn -1.000000 0.000000 0.000000
vn -1.000000 0.000000 0.000000
vn -1.000000 0.000000 0.000000
vn 0.000000 -0.235700 -0.971826
vn 0.000000 -0.235700 -0.971826
vn 0.000000 -0.157470 -0.987524
vn 0.000000 -0.157470 -0.987524
vn 0.000000 -0.290127 0.956988
vn 0.000000 -0.290127 0.956988
vn 0.000000 -0.170227 0.985405
vn 0.000000 -0.170227 0.985405
vn 1.000000 0.000000 0.000000
vn 1.000000 0.000000 0.000000
vn 1.000000 0.000000 0.000000
vn 1.000000 0.000000 0.000000
vn 0.000000 0.170227 -0.985405
vn 0.000000 0.170227 -0.985405
vn 0.000000 0.290126 -0.956988
vn 0.000000 0.290126 -0.956988
vn -1.000000 0.000000 0.000000
vn -1.000000 0.000000 0.000000
vn -1.000000 0.000000 0.000000
vn -1.000000 0.000000 0.000000
vn 1.000000 -0.000001 0.000000
vn 1.000000 -0.000001 0.000000
vn 1.000000 0.000000 0.000000
vn 1.000000 0.000000 0.000000
vn 0.000000 0.000000 1.000000
vn 0.000000 0.000000 1.000000
vn 0.000000 0.157470 0.987524
vn 0.000000 0.157470 0.987524
vn -1.000000 0.000000 0.000000
vn -1.000000 0.000000 0.000000
vn -1.000000 0.000000 0.000000
vn -1.000000 0.000000 0.000000
vn 0.000000 -0.157470 -0.987524
vn 0.000000 -0.157470 -0.987524
vn 0.000000 0.000000 -1.000000
vn 0.000000 0.000000 -1.000000
vn 0.000000 0.235700 0.971826
vn 0.000000 0.235700 0.971826
vn 0.000000 0.224770 0.974412
vn 0.000000 0.224770 0.974412
vn 0.000000 1.000000 0.000000
vn 0.000000 1.000000 0.000000
vn 0.000000 1.000000 0.000000
vn 0.000000 1.000000 0.000000
vn 0.000000 -0.224770 -0.974412
vn 0.000000 -0.224770 -0.974412
vn 0.000000 -0.235700 -0.971826
vn 0.000000 -0.235700 -0.971826
vn 0.000000 -1.000000 0.000000
vn 0.000000 -1.000000 0.000000
vn 0.000000 -1.000000 0.000000
vn 0.000000 -1.000000 0.000000
vn 1.000000 0.000000 0.000000
vn 1.000000 0.000000 0.000000
vn 1.000000 0.000000 0.000000
vn 1.000000 0.000000 0.000000
vn -1.000000 0.000000 0.000000
vn -1.000000 0.000000 0.000000
vn -1.000000 0.000000 0.000000
vn -1.000000 0.000000 0.000000
vn 0.000000 -0.170226 0.985405
vn 0.000000 -0.170226 0.985405
vn 0.000000 0.000000 1.000000
vn 0.000000 0.000000 1.000000
vn 1.000000 0.000000 0.000000
vn 1.000000 0.000000 0.000000
vn 1.000000 0.000000 0.000000
vn 1.000000 0.000000 0.000000
vn 0.000000 0.000000 -1.000000
vn 0.000000 0.000000 -1.000000
vn 0.000000 0.170226 -0.985405
vn 0.000000 0.170226 -0.985405
vn -1.000000 0.000000 0.000000
vn -1.000000 0.000000 0.000000
vn -1.000000 0.000000 0.000000
vn -1.000000 0.000000 0.000000
vn 0.000000 -0.277054 0.960854
vn 0.000000 -0.277054 0.960854
vn 0.000000 -0.290127 0.956988
vn 0.000000 -0.290127 0.956988
vn 1.000000 0.000000 0.000000
vn 1.000000 0.000000 0.000000
vn 1.000000 0.000000 0.000000
vn 1.000000 0.000000 0.000000
vn 0.000000 0.290127 -0.956988
vn 0.000000 0.290127 -0.956988
vn 0.000000 0.277054 -0.960854
vn 0.000000 0.277054 -0.960854
vn -1.000000 0.000000 0.000000
vn -1.000000 0.000000 0.000000
vn -1.000000 0.000000 0.000000
vn -1.000000 0.000000 0.000000
vn 1.000000 0.000000 0.000000
vn 1.000000 0.000000 0.000000
vn 1.000000 0.000000 0.000000
vn 1.000000 0.000000 0.000000
vn 0.000000 0.157470 0.987524
vn 0.000000 0.157470 0.987524
vn 0.000000 0.235700 0.971826
vn 0.000000 0.235700 0.971826
vn -1.000000 0.000000 0.000000
vn -1.000000 0.000000 0.000000
vn -1.000000 0.000000 0.000000
vn -1.000000 0.000000 0.000000
vn 0.000000 -0.235700 -0.971826
vn 0.000000 -0.235700 -0.971826
vn 0.000000 -0.157470 -0.987524
vn 0.000000 -0.157470 -0.987524
vn 0.000000 -0.290127 0.956988
vn 0.000000 -0.290127 0.956988
vn 0.000000 -0.170226 0.985405
vn 0.000000 -0.170226 0.985405
vn 1.000000 0.000000 0.000000
vn 1.000000 0.000000 0.000000
vn 1.000000 0.000000 0.000000
vn 1.000000 0.000000 0.000000
vn 0.000000 0.170226 -0.985405
vn 0.000000 0.170226 -0.985405
vn 0.000000 0.290127 -0.956988
vn 0.000000 0.290127 -0.956988
vn -1.000000 0.000000 0.000000
vn -1.000000 0.000000 0.000000
vn -1.000000 0.000000 0.000000
vn -1.000000 0.000000 0.000000
vn 1.000000 0.000000 0.000000
vn 1.000000 0.000000 0.000000
vn 1.000000 0.000000 0.000000
vn 1.000000 0.000000 0.000000
vn 0.000000 0.000000 1.000000
vn 0.000000 0.000000 1.000000
vn 0.000000 0.157470 0.987524
vn 0.000000 0.157470 0.987524
vn -1.000000 0.000000 0.000000
vn -1.000000 0.000000 0.000000
vn -1.000000 0.000000 0.000000
vn -1.000000 0.000000 0.000000
vn 0.000000 -0.157470 -0.987524
vn 0.000000 -0.157470 -0.987524
vn 0.000000 0.000000 -1.000000
vn 0.000000 0.000000 -1.000000
vn 0.000000 0.415477 0.909604
vn 0.000000 0.415477 0.909604
vn 0.000000 0.398454 0.917188
vn 0.000000 0.398454 0.917188
vn 0.000000 1.000000 0.000000
vn 0.000000 1.000000 0.000000
vn 0.000000 1.000000 0.000000
vn 0.000000 1.000000 0.000000
vn 0.000000 -0.398454 -0.917188
vn 0.000000 -0.398454 -0.917188
vn 0.000000 -0.415477 -0.909604
vn 0.000000 -0.415477 -0.909604
vn 0.000000 -1.000000 0.000000
vn 0.000000 -1.000000 0.000000
vn 0.000000 -1.000000 0.000000
vn 0.000000 -1.000000 0.000000
vn 1.000000 0.000000 0.000000
vn 1.000000 0.000000 0.000000
vn 1.000000 0.000000 0.000000
vn 1.000000 0.000000 0.000000
vn -1.000000 0.000000 0.000000
vn -1.000000 0.000000 0.000000
vn -1.000000 0.000000 0.000000
vn -1.000000 0.000000 0.000000
vn 0.000000 -0.309377 0.950939
vn 0.000000 -0.309377 0.950939
vn 0.000000 0.000000 1.000000
vn 0.000000 0.000000 1.000000
vn 1.000000 0.000000 0.000000
vn 1.000000 0.000000 0.000000
vn 1.000000 0.000000 0.000000
vn 1.000000 0.000000 0.000000
vn 0.000000 0.000000 -1.000000
vn 0.000000 0.000000 -1.000000
vn 0.000000 0.309377 -0.950939
vn 0.000000 0.309377 -0.950939
vn -1.000000 0.000000 0.000000
vn -1.000000 -0.000001 0.000000
vn -1.000000 0.000000 0.000000
vn -1.000000 0.000000 0.000000
vn 0.000000 -0.477213 0.878788
vn 0.000000 -0.477213 0.878788
vn 0.000000 -0.495831 0.868419
vn 0.000000 -0.495831 0.868419
vn 1.000000 0.000000 0.000000
vn 1.000000 0.000000 0.000000
vn 1.000000 0.000000 0.000000
vn 1.000000 0.000000 0.000000
vn 0.000000 0.495831 -0.868419
vn 0.000000 0.495831 -0.868419
vn 0.000000 0.477213 -0.878788
vn 0.000000 0.477213 -0.878788
vn -1.000000 0.000000 0.000000
vn -1.000000 0.000000 0.000000
vn -1.000000 0.000000 0.000000
vn -1.000000 0.000000 0.000000
vn 1.000000 0.000000 0.000000
vn 1.000000 0.000000 0.000000
vn 1.000000 0.000000 0.000000
vn 1.000000 0.000000 0.000000
vn 0.000000 0.287622 0.957744
vn 0.000000 0.287622 0.957744
vn 0.000000 0.415477 0.909604
vn 0.000000 0.415477 0.909604
vn -1.000000 0.000000 0.000000
vn -1.000000 0.000000 0.000000
vn -1.000000 0.000000 0.000000
vn -1.000000 0.000000 0.000000
vn 0.000000 -0.415477 -0.909604
vn 0.000000 -0.415477 -0.909604
vn 0.000000 -0.287622 -0.957744
vn 0.000000 -0.287622 -0.957744
vn 0.000000 -0.495831 0.868419
vn 0.000000 -0.495831 0.868419
vn 0.000000 -0.309377 0.950939
vn 0.000000 -0.309377 0.950939
vn 1.000000 0.000000 0.000000
vn 1.000000 0.000000 0.000000
vn 1.000000 0.000000 0.000000
vn 1.000000 0.000000 0.000000
vn 0.000000 0.309377 -0.950939
vn 0.000000 0.309377 -0.950939
vn 0.000000 0.495831 -0.868419
vn 0.000000 0.495831 -0.868419
vn -1.000000 0.000000 0.000000
vn -1.000000 0.000000 0.000000
vn -1.000000 -0.000001 0.000000
vn -1.000000 0.000000 0.000000
vn 1.000000 0.000000 0.000000
vn 1.000000 0.000000 0.000000
vn 1.000000 0.000000 0.000000
vn 1.000000 0.000000 0.000000
vn 0.000000 0.000000 1.000000
vn 0.000000 0.000000 1.000000
vn 0.000000 0.287622 0.957744
vn 0.000000 0.287622 0.957744
vn -1.000000 0.000000 0.000000
vn -1.000000 0.000000 0.000000
vn -1.000000 0.000000 0.000000
vn -1.000000 0.000000 0.000000
vn 0.000000 -0.287622 -0.957744
vn 0.000000 -0.287622 -0.957744
vn 0.000000 0.000000 -1.000000
vn 0.000000 0.000000 -1.000000
vn 0.000000 0.235700 0.971826
vn 0.000000 0.235700 0.971826
vn 0.000000 0.224771 0.974412
vn 0.000000 0.224771 0.974412
vn 0.000000 1.000000 0.000000
vn 0.000000 1.000000 0.000000
vn 0.000000 1.000000 0.000000
vn 0.000000 1.000000 0.000000
vn 0.000000 -0.224771 -0.974412
vn 0.000000 -0.224771 -0.974412
vn 0.000000 -0.235700 -0.971826
vn 0.000000 -0.235700 -0.971826
vn 0.000000 -1.000000 0.000000
vn 0.000000 -1.000000 0.000000
vn 0.000000 -1.000000 0.000000
vn 0.000000 -1.000000 0.000000
vn 1.000000 0.000001 0.000000
vn 1.000000 0.000001 0.000000
vn 1.000000 0.000001 0.000000
vn 1.000000 0.000001 0.000000
vn -1.000000 0.000001 0.000000
vn -1.000000 0.000001 0.000000
vn -1.000000 0.000001 0.000000
vn -1.000000 0.000001 0.000000
vn 0.000000 -0.170226 0.985405
vn 0.000000 -0.170226 0.985405
vn 0.000000 0.000000 1.000000
vn 0.000000 0.000000 1.000000
vn 1.000000 0.000000 0.000000
vn 1.000000 0.000000 0.000000
vn 1.000000 0.000000 0.000000
vn 1.000000 0.000000 0.000000
vn 0.000000 0.000000 -1.000000
vn 0.000000 0.000000 -1.000000
vn 0.000000 0.170227 -0.985405
vn 0.000000 0.170227 -0.985405
vn -1.000000 -0.000002 0.000000
vn -1.000000 -0.000001 0.000000
vn -1.000000 0.000000 0.000000
vn -1.000000 0.000000 0.000000
vn 0.000000 -0.277054 0.960854
vn 0.000000 -0.277054 0.960854
vn 0.000000 -0.290127 0.956988
vn 0.000000 -0.290127 0.956988
vn 1.000000 -0.000002 0.000000
vn 1.000000 -0.000002 0.000000
vn 1.000000 -0.000001 0.000000
vn 1.000000 -0.000001 0.000000
vn 0.000000 0.290127 -0.956988
vn 0.000000 0.290127 -0.956988
vn 0.000000 0.277054 -0.960854
vn 0.000000 0.277054 -0.960854
vn -1.000000 -0.000002 0.000000
vn -1.000000 -0.000002 0.000000
vn -1.000000 -0.000002 0.000000
vn -1.000000 -0.000002 0.000000
vn 1.000000 0.000000 0.000000
vn 1.000000 0.000000 0.000000
vn 1.000000 0.000001 0.000000
vn 1.000000 0.000001 0.000000
vn 0.000000 0.157470 0.987524
vn 0.000000 0.157470 0.987524
vn 0.000000 0.235700 0.971826
vn 0.000000 0.235700 0.971826
vn -1.000000 0.000000 0.000000
vn -1.000000 0.000000 0.000000
vn -1.000000 0.000001 0.000000
vn -1.000000 0.000001 0.000000
vn 0.000000 -0.235700 -0.971826
vn 0.000000 -0.235700 -0.971826
vn 0.000000 -0.157470 -0.987524
vn 0.000000 -0.157470 -0.987524
vn 0.000000 -0.290127 0.956988
vn 0.000000 -0.290127 0.956988
vn 0.000000 -0.170226 0.985405
vn 0.000000 -0.170226 0.985405
vn 1.000000 -0.000001 0.000000
vn 1.000000 -0.000001 0.000000
vn 1.000000 0.000000 0.000000
vn 1.000000 0.000000 0.000000
vn 0.000000 0.170227 -0.985405
vn 0.000000 0.170227 -0.985405
vn 0.000000 0.290127 -0.956988
vn 0.000000 0.290127 -0.956988
vn -1.000000 -0.000002 0.000000
vn -1.000000 -0.000002 0.000000
vn -1.000000 -0.000001 0.000000
vn -1.000000 -0.000002 0.000000
vn 1.000000 0.000000 0.000000
vn 1.000000 0.000000 0.000000
vn 1.000000 0.000000 0.000000
vn 1.000000 0.000000 0.000000
vn 0.000000 0.000000 1.000000
vn 0.000000 0.000000 1.000000
vn 0.000000 0.157470 0.987524
vn 0.000000 0.157470 0.987524
vn -1.000000 0.000000 0.000000
vn -1.000000 0.000000 0.000000
vn -1.000000 0.000000 0.000000
vn -1.000000 0.000000 0.000000
vn 0.000000 -0.157470 -0.987524
vn 0.000000 -0.157470 -0.987524
vn 0.000000 0.000000 -1.000000
vn 0.000000 0.000000 -1.000000
s off
g Sails3
usemtl lambert3SG
f 9/1/1 10/2/2 4/3/3 3/4/4
f 3/4/5 4/3/6 6/5/7 5/6/8
f 5/6/9 6/5/10 11/7/11 12/8/12
f 7/9/13 8/10/14 2/11/15 1/12/16
f 10/2/17 11/13/18 6/14/19 4/3/20
f 12/15/21 9/1/22 3/4/23 5/16/24
f 21/17/25 22/18/26 26/19/27 27/20/28
f 22/18/29 23/21/30 25/22/31 26/19/32
f 28/23/33 25/24/34 23/25/35 24/26/36
f 24/27/37 21/17/38 27/20/39 28/28/40
f 1/29/41 2/30/42 14/31/43 13/32/44
f 2/30/45 8/33/46 15/34/47 14/31/48
f 16/35/49 15/36/50 8/10/51 7/9/52
f 7/37/53 1/29/54 13/32/55 16/38/56
f 18/39/57 17/40/58 11/13/59 10/2/60
f 19/41/61 18/39/62 10/2/63 9/1/64
f 20/42/65 19/41/66 9/1/67 12/15/68
f 12/8/69 11/7/70 17/43/71 20/44/72
f 13/32/73 14/31/74 22/18/75 21/17/76
f 14/31/77 15/34/78 23/21/79 22/18/80
f 24/26/81 23/25/82 15/36/83 16/35/84
f 16/38/85 13/32/86 21/17/87 24/27/88
f 26/19/89 25/22/90 17/40/91 18/39/92
f 27/20/93 26/19/94 18/39/95 19/41/96
f 28/28/97 27/20/98 19/41/99 20/42/100
f 20/44/101 17/43/102 25/24/103 28/23/104
f 37/45/105 38/46/106 32/47/107 31/48/108
f 31/48/109 32/47/110 34/49/111 33/50/112
f 33/50/113 34/49/114 39/51/115 40/52/116
f 35/53/117 36/54/118 30/55/119 29/56/120
f 38/46/121 39/57/122 34/58/123 32/47/124
f 40/59/125 37/45/126 31/48/127 33/60/128
f 49/61/129 50/62/130 54/63/131 55/64/132
f 50/62/133 51/65/134 53/66/135 54/63/136
f 56/67/137 53/68/138 51/69/139 52/70/140
f 52/71/141 49/61/142 55/64/143 56/72/144
f 29/73/145 30/74/146 42/75/147 41/76/148
f 30/74/149 36/77/150 43/78/151 42/75/152
f 44/79/153 43/80/154 36/54/155 35/53/156
f 35/81/157 29/73/158 41/76/159 44/82/160
f 46/83/161 45/84/162 39/57/163 38/46/164
f 47/85/165 46/83/166 38/46/167 37/45/168
f 48/86/169 47/85/170 37/45/171 40/59/172
f 40/52/173 39/51/174 45/87/175 48/88/176
f 41/76/177 42/75/178 50/62/179 49/61/180
f 42/75/181 43/78/182 51/65/183 50/62/184
f 52/70/185 51/69/186 43/80/187 44/79/188
f 44/82/189 41/76/190 49/61/191 52/71/192
f 54/63/193 53/66/194 45/84/195 46/83/196
f 55/64/197 54/63/198 46/83/199 47/85/200
f 56/72/201 55/64/202 47/85/203 48/86/204
f 48/88/205 45/87/206 53/68/207 56/67/208
f 65/89/209 66/90/210 60/91/211 59/92/212
f 59/92/213 60/91/214 62/93/215 61/94/216
f 61/94/217 62/93/218 67/95/219 68/96/220
f 63/97/221 64/98/222 58/99/223 57/100/224
f 66/90/225 67/101/226 62/102/227 60/91/228
f 68/103/229 65/89/230 59/92/231 61/104/232
f 77/105/233 78/106/234 82/107/235 83/108/236
f 78/106/237 79/109/238 81/110/239 82/107/240
f 84/111/241 81/112/242 79/113/243 80/114/244
f 80/115/245 77/105/246 83/108/247 84/116/248
f 57/117/249 58/118/250 70/119/251 69/120/252
f 58/118/253 64/121/254 71/122/255 70/119/256
f 72/123/257 71/124/258 64/98/259 63/97/260
f 63/125/261 57/117/262 69/120/263 72/126/264
f 74/127/265 73/128/266 67/101/267 66/90/268
f 75/129/269 74/127/270 66/90/271 65/89/272
f 76/130/273 75/129/274 65/89/275 68/103/276
f 68/96/277 67/95/278 73/131/279 76/132/280
f 69/120/281 70/119/282 78/106/283 77/105/284
f 70/119/285 71/122/286 79/109/287 78/106/288
f 80/114/289 79/113/290 71/124/291 72/123/292
f 72/126/293 69/120/294 77/105/295 80/115/296
f 82/107/297 81/110/298 73/128/299 74/127/300
f 83/108/301 82/107/302 74/127/303 75/129/304
f 84/116/305 83/108/306 75/129/307 76/130/308
f 76/132/309 73/131/310 81/112/311 84/111/312
f 93/133/313 94/134/314 88/135/315 87/136/316
f 87/136/317 88/135/318 90/137/319 89/138/320
f 89/138/321 90/137/322 95/139/323 96/140/324
f 91/141/325 92/142/326 86/143/327 85/144/328
f 94/134/329 95/145/330 90/146/331 88/135/332
f 96/147/333 93/133/334 87/136/335 89/148/336
f 105/149/337 106/150/338 110/151/339 111/152/340
f 106/150/341 107/153/342 109/154/343 110/151/344
f 112/155/345 109/156/346 107/157/347 108/158/348
f 108/159/349 105/149/350 111/152/351 112/160/352
f 85/161/353 86/162/354 98/163/355 97/164/356
f 86/162/357 92/165/358 99/166/359 98/163/360
f 100/167/361 99/168/362 92/142/363 91/141/364
f 91/169/365 85/161/366 97/164/367 100/170/368
f 102/171/369 101/172/370 95/145/371 94/134/372
f 103/173/373 102/171/374 94/134/375 93/133/376
f 104/174/377 103/173/378 93/133/379 96/147/380
f 96/140/381 95/139/382 101/175/383 104/176/384
f 97/164/385 98/163/386 106/150/387 105/149/388
f 98/163/389 99/166/390 107/153/391 106/150/392
f 108/158/393 107/157/394 99/168/395 100/167/396
f 100/170/397 97/164/398 105/149/399 108/159/400
f 110/151/401 109/154/402 101/172/403 102/171/404
f 111/152/405 110/151/406 102/171/407 103/173/408
f 112/160/409 111/152/410 103/173/411 104/174/412
f 104/176/413 101/175/414 109/156/415 112/155/416
